<svg viewBox="0 0 64 64" xmlns="http://www.w3.org/2000/svg"><g data-name="Layer 4"><path d="m21.36 3.45-.84-.36L18.4 7h-4.8l-2.12-3.91-.84.36A12.1 12.1 0 0 0 3 14.47a12.11 12.11 0 0 0 8 11.15v30.56a5 5 0 0 0 10 0V25.62a12.11 12.11 0 0 0 8-11.15 12.1 12.1 0 0 0-7.64-11.02ZM16 16a2 2 0 1 1-2 2 2 2 0 0 1 2-2Zm2.4 37h-4.8c-.33 0-.6-.45-.6-1s.27-1 .6-1h4.8c.33 0 .6.45.6 1s-.27 1-.6 1ZM39 30v-4h-3V8a1 1 0 0 0-2 0v18h-3v4h-1v25.86a5 5 0 1 0 10 0V30Zm-1.6 23h-4.8c-.33 0-.6-.45-.6-1s.27-1 .6-1h4.8c.33 0 .6.45.6 1s-.27 1-.6 1Z" fill="#00ffb8" class="fill-000000"></path><path d="M55.4 51h-4.8c-.33 0-.6.45-.6 1s.27 1 .6 1h4.8c.33 0 .6-.45.6-1s-.27-1-.6-1Z" fill="none"></path><path d="M55.4 51h-4.8c-.33 0-.6.45-.6 1s.27 1 .6 1h4.8c.33 0 .6-.45.6-1s-.27-1-.6-1Z" fill="none"></path><path d="M60.22 13.52A5 5 0 0 0 56.74 5H42v10h7v20h-1v21.57a4.21 4.21 0 0 0 1.57 3.22A5.29 5.29 0 0 0 53 61a6.18 6.18 0 0 0 1-.09 4.67 4.67 0 0 0 4-4.48V35h-1V15a4.76 4.76 0 0 0 3.22-1.48ZM55 7.6c0-.33.45-.6 1-.6s1 .27 1 .6v4.8c0 .33-.45.6-1 .6s-1-.27-1-.6Zm.4 45.4h-4.8c-.33 0-.6-.45-.6-1s.27-1 .6-1h4.8c.33 0 .6.45.6 1s-.27 1-.6 1Z" fill="#00ffb8" class="fill-000000"></path></g></svg>