<svg viewBox="0 0 512 512" xml:space="preserve" xmlns="http://www.w3.org/2000/svg"><g fill="#00ffb8" class="fill-303a3f"><path d="M223.5 244.6h65v65h-65zM325.4 244.6h65v65h-65zM121.7 343.4h65v65h-65zM223.5 343.4h65v65h-65zM325.4 343.4h65v65h-65zM155.8 123.8c-16 0-29.1-13.1-29.1-29.1V29.2c0-16 13.1-29.1 29.1-29.1s29.1 13.1 29.1 29.1v65.6c0 15.9-13.1 29-29.1 29z"></path><path d="M430.7 61.9h-33v39.7c0 24.5-19.7 44.5-43.8 44.5h-11.6c-24.1 0-43.8-20-43.8-44.5V61.9h-90.4v39.7c0 24.5-19.7 44.5-43.8 44.5h-11.6c-24.1 0-43.8-20-43.8-44.5V61.9H83.6c-27.1 0-49.3 22.5-49.3 50v350c0 27.5 22.2 50 49.3 50h347.2c27.1 0 49.3-22.5 49.3-50v-350c-.1-27.5-22.3-50-49.4-50zm-8.4 352.8c0 17.1-13.8 31.1-30.6 31.1h-269c-16.8 0-30.6-14-30.6-31.1V238.3c0-17.1 13.8-32.3 30.6-32.3h269c16.8 0 30.6 15.2 30.6 32.3v176.4z"></path><path d="M348.3 123.8c-16 0-29.1-13.1-29.1-29.1V29.2c0-16 13.1-29.1 29.1-29.1s29.1 13.1 29.1 29.1v65.6c0 15.9-13.1 29-29.1 29z"></path></g></svg>