<svg version="1.0" xmlns="http://www.w3.org/2000/svg" viewBox="0 0 441.225 441.225"><path d="M461.047 656.303c-107.834 0-195.253-87.419-195.253-195.253 0-107.838 87.419-195.256 195.253-195.256 107.838 0 195.256 87.418 195.256 195.256 0 107.834-87.418 195.253-195.256 195.253z" transform="translate(-240.436 -240.436)" fill="none" stroke="#00ffb8" stroke-width="50.71590042" class="stroke-000000"></path><path d="M194.656 69.375v32.5c-13.15 0-72.312 16.754-72.312 70.469 0 47.785 42.692 60.793 72.281 65.062l.031 54c-21.605-6.167-25.531-22.79-28.531-36.531h-47.438c2.937 53.741 50.137 78.735 75.97 82.531v33.063h45.093v-32.563c35.695-1.898 77.969-32.722 77.969-74.969 0-48.386-42.109-62.12-77.969-65.812v-49.5c14.11 1 25.12 15 26.313 29.25h46.968c0-48-43.67-73.25-73.75-75v-32.5h-44.625zm.25 78.719v41.031c-31.788-.5-32.406-35.338 0-41.031zm45.375 97.031c39.337 1 43.694 40.254-.062 46.531l.062-46.531z" fill="#00ffb8" stroke="none" class="fill-000000"></path></svg>